<mxfile host="app.diagrams.net" modified="2024-04-24T20:30:03.741Z" agent="Mozilla/5.0 (Windows NT 10.0; Win64; x64) AppleWebKit/537.36 (KHTML, like Gecko) Chrome/123.0.0.0 Safari/537.36" version="24.2.7" etag="R4Gu9d3KXvlbo7ITUKUi" type="github">
  <diagram name="Page-1" id="6R7AFLaxC9L0e40B5Lmh">
    <mxGraphModel>
      <root>
        <mxCell id="0" />
        <mxCell id="1" parent="0" />
      </root>
    </mxGraphModel>
  </diagram>
</mxfile>
